<svg width="31" height="31" viewBox="0 0 31 31" fill="none" xmlns="http://www.w3.org/2000/svg">
<path d="M16.4688 9.04169C16.4688 8.78476 16.3667 8.53835 16.185 8.35668C16.0033 8.175 15.7569 8.07294 15.5 8.07294C15.2431 8.07294 14.9967 8.175 14.815 8.35668C14.6333 8.53835 14.5313 8.78476 14.5313 9.04169V15.5C14.5312 15.6643 14.5729 15.8258 14.6524 15.9695C14.7319 16.1132 14.8467 16.2344 14.9859 16.3215L18.8609 18.7434C19.0788 18.8797 19.3419 18.9239 19.5924 18.8663C19.7164 18.8378 19.8336 18.7851 19.9372 18.7112C20.0409 18.6374 20.129 18.5439 20.1965 18.436C20.264 18.3281 20.3096 18.208 20.3307 18.0825C20.3518 17.957 20.3479 17.8285 20.3194 17.7045C20.2909 17.5805 20.2382 17.4633 20.1643 17.3597C20.0905 17.256 19.997 17.1679 19.8891 17.1004L16.4688 14.9627V9.04169Z" fill="white"/>
<path fill-rule="evenodd" clip-rule="evenodd" d="M15.5001 4.19794C12.5026 4.19794 9.62785 5.38869 7.5083 7.50824C5.38875 9.62779 4.198 12.5025 4.198 15.5C4.198 18.4975 5.38875 21.3723 7.5083 23.4918C9.62785 25.6114 12.5026 26.8021 15.5001 26.8021C18.4976 26.8021 21.3723 25.6114 23.4919 23.4918C25.6114 21.3723 26.8022 18.4975 26.8022 15.5C26.8022 12.5025 25.6114 9.62779 23.4919 7.50824C21.3723 5.38869 18.4976 4.19794 15.5001 4.19794ZM6.1355 15.5C6.1355 14.2702 6.37772 13.0525 6.84833 11.9163C7.31895 10.7802 8.00874 9.74784 8.87832 8.87826C9.7479 8.00868 10.7802 7.31889 11.9164 6.84827C13.0526 6.37766 14.2703 6.13544 15.5001 6.13544C16.7299 6.13544 17.9476 6.37766 19.0838 6.84827C20.2199 7.31889 21.2523 8.00868 22.1218 8.87826C22.9914 9.74784 23.6812 10.7802 24.1518 11.9163C24.6224 13.0525 24.8647 14.2702 24.8647 15.5C24.8647 17.9837 23.878 20.3656 22.1218 22.1218C20.3656 23.878 17.9837 24.8646 15.5001 24.8646C13.0164 24.8646 10.6345 23.878 8.87832 22.1218C7.12212 20.3656 6.1355 17.9837 6.1355 15.5Z" fill="white"/>
</svg>
