<svg width="28" height="28" viewBox="0 0 28 28" fill="none" xmlns="http://www.w3.org/2000/svg">
<path d="M2.91675 14C2.91675 8.77569 2.91675 6.16235 4.53958 4.53952C6.16241 2.91669 8.77458 2.91669 14.0001 2.91669C19.2244 2.91669 21.8377 2.91669 23.4606 4.53952C25.0834 6.16235 25.0834 8.77452 25.0834 14C25.0834 19.2244 25.0834 21.8377 23.4606 23.4605C21.8377 25.0834 19.2256 25.0834 14.0001 25.0834C8.77575 25.0834 6.16241 25.0834 4.53958 23.4605C2.91675 21.8377 2.91675 19.2255 2.91675 14Z" stroke="white" stroke-width="1.5" stroke-linecap="round" stroke-linejoin="round"/>
<path d="M20.426 7.58337H20.4143M19.25 14C19.25 15.3924 18.6969 16.7278 17.7123 17.7124C16.7277 18.6969 15.3924 19.25 14 19.25C12.6076 19.25 11.2723 18.6969 10.2877 17.7124C9.30312 16.7278 8.75 15.3924 8.75 14C8.75 12.6077 9.30312 11.2723 10.2877 10.2877C11.2723 9.30316 12.6076 8.75004 14 8.75004C15.3924 8.75004 16.7277 9.30316 17.7123 10.2877C18.6969 11.2723 19.25 12.6077 19.25 14Z" stroke="white" stroke-width="1.5" stroke-linecap="round" stroke-linejoin="round"/>
</svg>
