<svg width="34" height="34" viewBox="0 0 34 34" fill="none" xmlns="http://www.w3.org/2000/svg">
<path d="M17 8.76562C16.0018 8.76562 15.0261 9.06162 14.1961 9.61618C13.3662 10.1707 12.7193 10.9589 12.3373 11.8811C11.9553 12.8033 11.8554 13.8181 12.0501 14.7971C12.2448 15.7761 12.7255 16.6754 13.4313 17.3812C14.1371 18.087 15.0364 18.5677 16.0154 18.7624C16.9944 18.9571 18.0092 18.8572 18.9314 18.4752C19.8536 18.0932 20.6418 17.4463 21.1963 16.6164C21.7509 15.7864 22.0469 14.8107 22.0469 13.8125C22.0469 12.474 21.5152 11.1903 20.5687 10.2438C19.6222 9.29735 18.3385 8.76562 17 8.76562ZM17 17.2656C16.317 17.2656 15.6494 17.0631 15.0815 16.6837C14.5137 16.3042 14.0711 15.7649 13.8097 15.134C13.5484 14.503 13.48 13.8087 13.6132 13.1388C13.7465 12.469 14.0753 11.8537 14.5583 11.3708C15.0412 10.8878 15.6565 10.559 16.3263 10.4257C16.9962 10.2925 17.6905 10.3609 18.3215 10.6222C18.9524 10.8836 19.4917 11.3262 19.8712 11.894C20.2506 12.4619 20.4531 13.1295 20.4531 13.8125C20.4531 14.7283 20.0893 15.6066 19.4417 16.2542C18.7941 16.9018 17.9158 17.2656 17 17.2656ZM17 2.39062C13.9718 2.39414 11.0687 3.59864 8.9274 5.7399C6.78614 7.88115 5.58164 10.7843 5.57812 13.8125C5.57812 17.9177 7.48266 22.278 11.0859 26.4217C12.7121 28.3012 14.5425 29.9939 16.5431 31.4686C16.677 31.5623 16.8365 31.6126 17 31.6126C17.1635 31.6126 17.323 31.5623 17.4569 31.4686C19.4575 29.9939 21.2879 28.3012 22.9141 26.4217C26.5173 22.278 28.4219 17.9217 28.4219 13.8125C28.4184 10.7843 27.2139 7.88115 25.0726 5.7399C22.9313 3.59864 20.0282 2.39414 17 2.39062ZM17 29.8177C15.0078 28.2798 7.17188 21.7308 7.17188 13.8125C7.17188 11.2059 8.20733 8.7061 10.0505 6.86297C11.8936 5.01984 14.3934 3.98438 17 3.98438C19.6066 3.98438 22.1064 5.01984 23.9495 6.86297C25.7927 8.7061 26.8281 11.2059 26.8281 13.8125C26.8281 21.7308 18.9922 28.2798 17 29.8177Z" fill="white"/>
</svg>
